<svg width="768" height="160" xmlns="http://www.w3.org/2000/svg" xmlns:xlink="http://www.w3.org/1999/xlink"><defs><path d="M0 0h768v60c0 55.228-44.772 100-100 100H0V0z" id="a"/></defs><g fill="none" fill-rule="evenodd"><mask id="b" fill="#fff"><use xlink:href="#a"/></mask><use fill="#5964E0" transform="matrix(-1 0 0 1 768 0)" xlink:href="#a"/><g mask="url(#b)" fill="#FFF" opacity=".081"><path d="M313.06-364.235l344.16 164.899c20.42 9.784 29.043 34.27 19.259 54.69a41 41 0 01-13.459 15.87L356.104 86.129c-18.548 12.988-44.114 8.48-57.102-10.069a41 41 0 01-7.219-19.515L254.54-323.26c-2.21-22.535 14.268-42.595 36.803-44.805a41 41 0 0121.717 3.83zM-12.94 30.765l344.16 164.899c20.42 9.784 29.043 34.27 19.259 54.69a41 41 0 01-13.459 15.87L30.104 481.129c-18.548 12.988-44.114 8.48-57.102-10.069a41 41 0 01-7.219-19.515L-71.46 71.74c-2.21-22.535 14.268-42.595 36.803-44.805a41 41 0 0121.717 3.83z"/></g></g></svg>